<svg width="15" height="15" viewBox="0 0 15 15" fill="none" xmlns="http://www.w3.org/2000/svg">
<path fill-rule="evenodd" clip-rule="evenodd" d="M0.666628 0.910148L0.5 1.3203V7.5V13.6797L0.666628 14.0899L0.833255 14.5H6.53922H12.2452L12.4118 14.0899L12.5784 13.6797V12.7936V11.9074H11.8922H11.2059V12.5556V13.2037H6.53922H1.87255V7.5V1.7963H6.53922H11.2059V2.44444V3.09259H11.8922H12.5784V2.20644V1.3203L12.4118 0.910148L12.2452 0.5H6.53922H0.833255L0.666628 0.910148ZM11.2059 5.92733V6.98148H8.59804H5.9902V7.5V8.01852H8.59804H11.2059V9.07267V10.1271L12.8529 8.90493L14.5 7.68278V7.5V7.31722L12.8529 6.09507L11.2059 4.87293V5.92733Z" fill="white"/>
</svg>
